<svg width="136" height="136" viewBox="0 0 136 136" fill="none" xmlns="http://www.w3.org/2000/svg">
<path fill-rule="evenodd" clip-rule="evenodd" d="M67.7168 135.097C104.93 135.097 135.097 104.93 135.097 67.7168C135.097 30.5036 104.93 0.336304 67.7168 0.336304C30.5036 0.336304 0.336304 30.5036 0.336304 67.7168C0.336304 104.93 30.5036 135.097 67.7168 135.097ZM34.0266 37.3957V97.7012H101.126V50.7033H67.4922V37.3957H34.0266ZM94.3321 57.666V91.0755C85.4042 91.0755 76.7009 91.0755 67.8291 91.1316V84.5059H74.1741V77.824H67.773V71.0298H74.118V64.2356H67.7168V57.666H94.3321ZM40.8208 50.5349V44.1337H47.2219V50.5349H40.8208ZM60.698 50.5349H54.1846V44.1899H60.698V50.5349ZM47.1658 64.0671H40.7646V57.666H47.1658V64.0671ZM60.698 63.9548H54.1846V57.6098H60.698V63.9548ZM40.7646 71.1421H47.2781V77.4871H40.7646V71.1421ZM54.2969 77.5432V71.0298H60.6419V77.5432H54.2969ZM47.2219 90.907H40.7085V84.6182H47.2219V90.907ZM60.6419 84.6182V91.1316H54.2969V84.6182H60.6419ZM87.6502 64.348V70.7491H81.1929V64.348H87.6502ZM87.7064 84.2251V77.9363H81.1929V84.2251H87.7064Z" fill="white"/>
</svg>
