<svg width="136" height="136" viewBox="0 0 136 136" fill="none" xmlns="http://www.w3.org/2000/svg">
<path fill-rule="evenodd" clip-rule="evenodd" d="M68 135.097C105.213 135.097 135.381 104.93 135.381 67.7168C135.381 30.5036 105.213 0.336304 68 0.336304C30.7867 0.336304 0.619446 30.5036 0.619446 67.7168C0.619446 104.93 30.7867 135.097 68 135.097ZM72.5119 31.7807H63.5335C62.9584 31.921 62.3903 32.0613 61.8221 32.2016C61.2539 32.3419 60.6857 32.4823 60.1105 32.6226C53.517 34.0819 47.8213 37.169 42.9955 41.8837C37.7768 46.9353 34.3538 52.969 32.8948 60.0693C31.2955 67.7869 31.9689 75.28 35.2235 82.4924C38.7307 90.2381 44.3142 96.0193 51.8336 99.8641C56.94 102.474 62.4112 103.681 68.163 103.653C76.2435 103.625 83.5104 101.211 89.8795 96.3C97.2025 90.6591 101.776 83.2782 103.431 74.1294C103.506 73.6804 103.631 73.2563 103.755 72.8322C103.818 72.6202 103.88 72.4081 103.936 72.1929V63.2124C103.89 63.023 103.844 62.8344 103.798 62.6462C103.564 61.6915 103.334 60.7498 103.123 59.7886C101.664 53.1936 98.5492 47.5246 93.8636 42.6695C88.7291 37.3935 82.5845 33.9977 75.4018 32.4542C74.7225 32.3183 74.0566 32.1556 73.3948 31.9938C73.1 31.9217 72.8059 31.8499 72.5119 31.7807ZM51.2163 51.4255C50.1501 56.1122 49.3926 60.9392 49.3364 66.0469H35.1394C35.5041 59.1993 37.7487 53.1936 41.7329 47.8053C44.8753 49.012 47.9616 50.1907 51.2163 51.4255ZM94.2845 47.8333C98.2967 53.1094 100.513 59.1712 100.934 66.0469H86.737C86.5967 61.0796 85.9795 56.1964 84.8011 51.4817C87.9716 50.2749 91.0298 49.0962 94.2845 47.8333ZM41.7609 87.572C37.7487 82.3241 35.5041 76.2622 35.1113 69.3304H49.2803C49.4487 74.3258 50.0098 79.209 51.2444 83.9237C48.0739 85.1305 45.0156 86.3092 41.7609 87.572ZM94.3125 87.572C91.114 86.3372 88.0277 85.1585 84.9133 83.9798C85.0539 83.1458 85.209 82.3009 85.3655 81.4478C85.6462 79.9185 85.9317 78.3627 86.1478 76.7954C86.3793 74.9642 86.5319 73.1331 86.6884 71.2545C86.7405 70.6283 86.7931 69.9969 86.8493 69.3585H100.906C100.569 76.2061 98.2967 82.2399 94.3125 87.572ZM66.2831 53.5584C66.5357 54.5406 66.5918 64.5314 66.2831 66.0469C61.7098 66.0469 57.1084 66.0469 52.3386 66.075C52.4789 61.3041 53.04 56.6454 54.2465 52.1833C56.647 52.4464 58.9994 52.7192 61.3374 52.9903C62.9892 53.1818 64.6338 53.3725 66.2831 53.5584ZM75.6684 82.5205C73.6552 82.289 71.6421 82.0574 69.622 81.8189V69.5549C70.604 69.2181 81.4622 69.1059 83.5665 69.3865C84.0155 71.6317 82.7248 81.0612 81.7147 83.2221C79.6946 82.9836 77.6815 82.752 75.6684 82.5205ZM81.7989 52.2113C83.0334 56.5893 83.5665 61.2479 83.7349 66.075C78.9932 66.075 74.3918 66.075 69.6781 66.103V53.5865C71.0294 53.4331 72.3872 53.2797 73.7549 53.1252C76.3914 52.8274 79.0648 52.5255 81.7989 52.2113ZM54.2465 83.194C53.012 78.8161 52.5069 74.1574 52.3105 69.3304H66.3673V81.847C62.4112 82.2679 58.4271 82.717 54.2465 83.194ZM69.8184 50.303C69.5098 49.1243 69.4817 36.5235 69.7903 35.008C71.2774 35.3448 72.4558 36.0745 73.522 36.9725C75.0371 38.1793 76.2155 39.6947 77.2536 41.2944C78.8248 43.6798 79.9752 46.2617 80.873 49.0962C77.1694 49.8259 73.522 50.303 69.8184 50.303ZM66.227 85.0743C66.5357 86.3092 66.5637 98.938 66.2551 100.397C64.768 100.061 63.5896 99.3309 62.4954 98.4609C60.9803 97.2542 59.858 95.7106 58.7637 94.139C57.7537 92.6516 55.6774 88.4701 55.2285 86.3092C58.876 85.5514 62.5234 85.1305 66.227 85.0743ZM66.1709 34.98C66.5357 36.0464 66.6479 47.8895 66.3393 50.303C62.5515 50.2749 58.9321 49.8539 55.2846 49.0681C55.3072 48.9326 55.3162 48.8152 55.3243 48.7087C55.3363 48.5506 55.3466 48.4165 55.3969 48.2823C56.6875 44.6901 58.3709 41.3225 60.8961 38.4599C62.0184 37.197 63.3091 36.1306 64.8803 35.4571C65.2488 35.285 65.6389 35.156 66.0129 35.0324C66.0659 35.0148 66.1186 34.9974 66.1709 34.98ZM69.8745 100.425C69.5098 99.359 69.3695 87.544 69.7062 85.1024C73.4939 85.1305 77.1133 85.5514 80.7327 86.3092C80.7138 86.4417 80.7013 86.5615 80.6897 86.6717C80.667 86.8882 80.6482 87.0679 80.5924 87.2353C79.3299 90.6872 77.7306 93.9426 75.3176 96.7209C74.1673 98.068 72.8205 99.2186 71.1651 99.9483C70.7965 100.12 70.4064 100.249 70.0324 100.373C69.9794 100.391 69.9267 100.408 69.8745 100.425ZM43.9214 45.2234C48.0739 40.9015 52.7875 37.8706 58.4551 36.3551C55.5091 39.9473 53.6573 44.0447 52.1141 48.3385C49.2803 47.5527 46.6149 46.6827 43.9214 45.2234ZM77.45 36.4393C80.873 36.4954 88.8975 41.3225 92.0399 45.2795C89.4305 46.6827 86.7931 47.6369 83.9313 48.3665C82.3881 44.0447 80.5363 39.9193 77.45 36.4393ZM58.5112 99.0502C52.7875 97.5629 48.13 94.4758 43.8933 90.182C46.6149 88.7227 49.2523 87.7966 52.1422 87.0388C53.6853 91.3607 55.5371 95.4861 58.5112 99.0502ZM83.9032 87.095C86.737 87.7685 89.3744 88.7507 92.1802 90.1539C87.9435 94.5039 83.2579 97.5629 77.5622 99.0783C80.4802 95.5142 82.3881 91.4449 83.9032 87.095Z" fill="white"/>
</svg>
